<svg xmlns="http://www.w3.org/2000/svg" viewBox="29.761 180.002 507.4 206.9">
  <path d="M 444.145 226.427 c 0.014 1.279 -1.57 0.963 -2.18 1.175 c -2.787 0.967 -5.29 2.578 -8.05 3.496 c -5.274 1.753 -10.175 4.388 -15.461 6.136 c -3.924 1.298 -7.625 3.305 -11.595 4.561 c -1.326 0.419 -2.384 1.351 -3.938 1.443 c -1.354 0.08 -2.116 1.361 -1.885 2.899 c -0.482 -0.083 -0.785 0.137 -0.889 0.593 c -0.017 0.077 0.217 0.311 0.294 0.294 c 0.457 -0.103 0.678 -0.406 0.594 -0.887 c 4.895 0.078 9.655 -1.769 14.595 -1.001 c 1.952 -1.704 4.742 -0.223 6.777 -1.784 c 0.432 -0.332 1.255 -0.196 1.898 -0.205 c 1.667 -0.024 3.697 0.588 4.915 -0.151 c 1.733 -1.051 2.912 0.213 4.251 0.294 c 2.538 0.154 4.571 -1.422 7.105 -1.265 c 2.321 0.144 4.919 1.008 7.111 -0.851 c 0.29 -0.246 0.972 -0.022 1.472 -0.036 c 2.4 -0.067 4.798 0.292 7.13 -0.918 c 0.999 -0.518 2.452 -0.193 3.469 0.734 c 0.793 -1.288 2.114 -0.918 3.157 -0.762 c 2.349 0.351 4.205 -1.509 6.608 -1.121 c 2.112 0.341 4.329 0.156 6.488 0.023 c 0.705 -0.044 1.374 -0.656 1.943 -0.949 c 1.161 -0.06 1.512 1.614 2.733 0.996 c 3.401 -1.724 7.05 -0.823 10.593 -0.959 c 1.061 -0.041 1.861 -0.348 2.638 -1.38 c 1.621 1.732 3.626 1.226 5.534 1.367 c 1.51 0.111 2.401 -1.502 4.109 -1.11 c 1.311 0.3 2.912 0.558 4.143 -0.846 c 0.255 -0.29 1.456 -0.203 2.296 0.261 c 2.27 1.253 4.603 1.184 6.934 -0.358 c 1.093 -0.235 1.608 1.551 2.964 1.049 c 1.096 -0.406 1.966 0.523 2.961 0.79 l 0.427 -1.671 c 4.017 1.888 7.977 3.765 11.837 6.486 v 2.874 l 1.739 1.736 c 1.072 2.412 -1.084 4.139 -0.778 6.128 l -3.45 3.617 c -3.389 0.158 -6.119 -1.433 -9.055 -2.75 l -2.302 1.087 c -0.573 0.755 0.346 1.957 -0.635 2.65 c -0.892 -0.363 -0.126 -1.619 -1.194 -1.932 l -0.642 1.81 l -1.37 -0.699 c -1.209 1.927 1.045 1.896 1.159 2.757 c 1.255 0.209 1.503 -0.568 2.022 -0.916 c 0.962 1.131 2.494 1.231 3.63 2.032 c 1.069 -1.22 2.576 0.096 3.671 -0.737 c 1.061 1.473 2.877 0.063 4.055 1.045 c 0.795 1.587 -2.111 2.367 -0.149 4.444 c -2.635 -0.102 -4.244 0.787 -5.361 2.433 c -3.605 -1.203 -6.997 -2.248 -10.384 -0.237 c -1.839 -1.526 -4.383 -1.582 -5.994 -0.795 c -1.562 0.763 -2.897 -0.334 -4.014 0.396 c -1.619 1.058 -2.643 -0.239 -3.944 -0.556 c -0.944 -0.23 -2.208 -0.415 -2.951 0.022 c -2.626 1.542 -5.428 0.632 -8.127 0.95 c -1.877 0.221 -3.973 -0.786 -5.614 0.959 c -0.156 0.166 -0.742 0.159 -0.962 0.001 c -2.582 -1.858 -5.121 -0.196 -7.693 -0.023 c -2.822 0.19 -5.793 -0.483 -8.473 0.161 c -4.546 1.093 -9.188 0.19 -13.585 1.06 c -3.586 0.71 -7.184 0.192 -10.598 0.945 c -3.891 0.858 -7.857 0.243 -11.581 1.049 c -3.253 0.704 -6.664 -0.024 -9.56 1.013 c -3.15 1.128 -6.244 0.05 -9.129 0.906 c -3.379 1.002 -6.821 0.391 -10.09 1.047 c -2.723 0.546 -5.676 0.386 -8.085 1.963 l -1.449 -1.339 c -1.897 2.367 -4.9 0.346 -7.124 1.736 c -0.807 0.505 -1.527 0.499 -2.308 0.479 a 47.15 47.15 0 0 0 -14.697 1.949 c -1.38 0.408 -2.99 0.158 -4.482 0.043 c -3.426 -0.265 -6.65 0.527 -9.8 1.721 c -1.931 0.732 -4.26 -0.421 -5.966 1.295 c -3.793 -0.731 -7.38 0.792 -11.083 1.097 c -3.889 0.321 -7.727 1.367 -11.551 2.252 c -0.527 0.122 -1.009 0.618 -1.718 0.679 c -1.721 0.148 -3.404 -0.405 -5.184 0.832 c -1.244 0.864 -3.541 -0.428 -4.995 1.133 c -4.335 -1.008 -7.941 2.44 -12.176 1.984 c -1.081 -0.116 -1.521 0.972 -2.563 1.154 c -0.786 0.137 -1.544 0.929 -2.613 0.875 c -5.491 -0.278 -10.536 1.851 -15.658 3.27 c -4.427 1.227 -9.045 2.099 -13.095 4.616 c -0.949 0.59 -2.578 0.087 -2.865 0.087 c -5.754 2.341 -10.708 3.679 -16.07 4.169 c -1.557 1.863 -4.14 1.607 -6.341 2.288 a 2191.67 2191.67 0 0 1 -18.669 5.694 c -2.533 0.759 -5.072 2.208 -7.559 3.451 c -2.19 1.094 -4.399 2.649 -7.002 2.309 c -1.376 -0.18 -2.222 0.705 -3.043 1.164 c -7.988 4.468 -16.977 6.563 -25.083 10.712 c -2.727 -0.66 -4.343 1.598 -6.463 2.505 c -1.98 0.847 -3.986 1.653 -5.945 2.564 c -4.319 2.007 -8.902 3.45 -13.392 5.083 c -0.576 0.21 -1.232 -0.119 -1.836 0.421 c -3.343 2.983 -7.827 3.679 -11.756 5.413 c -3.78 1.668 -7.76 2.965 -11.509 4.809 c -1.354 0.666 -2.914 0.913 -4.336 1.338 l -0.801 -0.799 c -0.217 0.104 -0.644 0.211 -0.646 0.326 c -0.032 1.597 -0.988 2.307 -2.412 2.484 c -2.705 0.337 -4.809 2.077 -7.253 3.023 c -2.298 0.889 -4.608 1.681 -6.85 2.801 c -4.117 2.057 -8.539 3.514 -12.864 5.141 c -0.568 0.214 -1.211 0.073 -1.765 0.595 c -2.393 2.255 -5.39 3.025 -8.564 3.472 c -1.986 0.28 -3.257 2.799 -5.679 1.961 c -1.968 2.684 -5.254 2.607 -7.954 3.737 c -2.557 1.07 -5.204 1.928 -7.822 2.847 c -2.764 0.97 -5.531 1.859 -8.243 3.05 c -3.655 1.606 -7.714 2.309 -11.619 3.325 c -0.756 0.197 -1.466 0.209 -2.256 0.619 c -2.866 1.49 -2.923 1.38 -6.481 1.325 l -2.154 -5.55 c 0.789 -0.535 2.018 -0.645 2.757 -1.855 c -3.066 -0.962 -3.447 -4.952 -6.56 -5.489 c -0.959 -1.969 -0.162 -3.276 1.207 -3.963 c 4.04 -2.026 7.896 -4.334 11.751 -6.683 c 1.496 -0.911 3.468 -1.143 5.081 -2.191 c 3.637 -2.364 7.849 -3.651 11.501 -6.07 c 1.466 -0.971 3.118 -1.916 5.107 -2.173 c 1.849 -0.239 3.181 -1.963 4.81 -2.831 c 2.979 -1.588 6.378 -2.425 9.269 -4.135 c 5.621 -3.326 11.968 -4.991 17.653 -8.121 c 1.914 -1.054 3.95 -1.791 6.056 -1.874 l 0.418 -1.602 c 0.289 -0.108 0.57 -0.252 0.868 -0.316 c 0.936 -0.199 1.874 0.208 2.862 -0.354 c 2.949 -1.678 5.98 -3.218 9.227 -4.273 c 1.185 -0.385 2.162 -0.987 2.409 -2.312 l 1.28 1.142 c 2.353 -1.361 4.326 -3.947 7.488 -3.126 c 0.23 -0.167 0.43 -0.236 0.473 -0.358 c 0.151 -0.439 0.249 -0.897 0.366 -1.348 c 4.735 -1.018 9.398 -2.216 13.31 -5.296 c 4.912 -0.099 8.5 -3.654 13.031 -4.749 c 3.121 -0.35 6.353 -0.395 8.758 -3.019 c 2.721 -0.072 4.315 -3.101 6.641 -3.104 c 2.658 -0.004 4.536 -1.426 6.633 -2.279 c 7.728 -3.144 15.933 -4.944 23.496 -8.465 c 1.318 -0.613 2.584 -0.001 3.855 -0.61 l 0.368 -1.766 c 2.827 0.782 5.315 -1.526 8.235 -0.998 l 2.129 -2.009 l 0.819 0.817 c 3.09 -1.943 6.808 -2.519 9.954 -4.505 c 1.094 -0.691 2.845 -0.344 4.33 -0.473 l 1.804 -1.801 h 3.143 l 1.481 -2.259 c 4.539 1.057 7.486 -2.221 11.262 -2.839 l 1.317 1.066 l 2.494 -3.185 c 4.615 0.824 8.172 -1.215 11.916 -2.381 c 2.419 -0.754 4.739 -1.945 7.339 -1.382 l 2.171 -2.042 l 0.776 0.774 c 1.036 -0.534 2.271 -0.724 3.236 -1.873 h 4.113 c 0.535 -0.91 -0.722 -0.942 -0.473 -1.599 c 1.509 -1.105 3.635 0.632 5.044 -1.049 c 1.582 0.922 2.909 0.499 4.624 -0.088 c 1.38 -0.472 3.288 -0.439 4.45 -1.29 c 1.497 -1.096 3.521 -0.456 4.707 -2.102 l 1.591 1.12 c 1.233 -1.585 4.091 -0.4 4.672 -3.04 l 1.237 1.081 c 1.54 -1.399 3.597 -1.68 5.461 -2.4 c 4.32 -1.668 8.701 -3.161 13.115 -4.564 c 0.433 -0.137 0.815 -0.461 1.193 -0.734 c 2.447 -1.769 5.409 -2.235 8.142 -3.29 s 5.606 -1.956 8.126 -3.267 c 1.74 -0.904 3.881 0.245 5.368 -1.815 c 0.824 -1.141 3.051 -1.254 4.629 -1.874 c 1.72 -0.676 3.729 -1.055 5.035 -2.213 c 1.149 -1.019 2.438 -0.853 3.546 -1.184 c 3.135 -0.938 6.063 -2.346 8.992 -3.672 c 3.147 -1.424 6.364 -2.346 9.665 -3.274 c 3.674 -1.033 7.007 -3.232 10.656 -4.406 c 4.887 -1.572 9.626 -3.363 13.994 -6.073 c 5.28 -0.222 9.446 -3.909 14.597 -4.637 c 3.086 -0.436 5.452 -2.804 8.52 -3.575 c 2.837 -0.712 5.84 -1.302 7.974 -3.745 c 0.397 -0.455 1.609 -0.103 2.273 -0.45 c 0.705 -0.369 1.205 -1.128 1.817 -1.739 l 0.705 0.775 c 0.87 0.364 1.034 -1.05 1.952 -0.804 c 0.566 0.152 1.335 0.277 1.73 -0.349 l 0.313 -1.517 h 3.129 c 2.275 -3.215 6.469 -2.634 9.484 -4.893 c 2.689 -2.015 6.616 -2.382 9.978 -3.47 c 0.298 -0.46 0.293 -0.912 0.079 -1.299 l -0.37 -0.413 c -1.789 2.378 -4.831 -0.224 -6.823 1.712 c -0.45 0.437 -1.552 0.244 -2.356 0.272 c -2.238 0.077 -4.388 0.103 -6.629 0.893 c -2.842 1.002 -6.13 0.671 -9.004 1.316 c -4.096 0.92 -8.102 0.523 -12.186 0.833 l -2.055 1.925 c -0.274 -0.273 -0.634 -0.755 -0.727 -0.708 c -3.217 1.614 -7.034 0.959 -10.205 2.703 c -4.59 -0.625 -8.88 1.001 -13.13 2.153 c -4.574 1.24 -9.517 0.047 -13.901 2.676 c -1.769 1.061 -4.515 -0.455 -6.483 1.204 c -4.683 -0.178 -8.974 2.067 -13.677 2.111 c -2.398 0.022 -4.82 1.115 -7.167 1.911 c -3.155 1.069 -6.513 0.915 -9.723 1.838 c -1.773 0.51 -3.626 0.976 -5.352 1.619 c -0.783 0.292 -1.496 0.547 -2.283 0.501 c -3.573 -0.212 -6.841 1.008 -10.187 1.978 c -2.845 0.825 -5.786 1.317 -8.663 2.043 c -3.766 0.95 -7.516 1.971 -11.26 3.006 c -0.434 0.12 -0.79 0.525 -1.469 0.997 c -4.473 -0.971 -8.687 1.458 -13.116 2.499 c -1.335 0.314 -2.94 -0.201 -4.105 0.882 c -1.667 1.551 -4.312 -0.464 -5.841 1.594 c -1.955 -0.182 -3.592 1.013 -5.575 1.167 c -2.868 0.222 -5.739 1.372 -8.483 2.348 c -1.407 0.501 -2.952 -0.199 -4.125 0.889 c -1.664 1.543 -3.958 0.061 -5.969 1.399 c -1.273 0.847 -3.55 1.059 -5.432 1.367 c -3.789 0.621 -7.567 1.793 -11.216 3.026 c -2.767 0.935 -5.792 1.117 -8.381 2.718 c -0.664 0.41 -2.076 0.479 -2.388 -0.939 c -0.932 0.367 -0.575 1.164 -1.093 2.032 c -3.235 -0.865 -5.868 2.13 -9.131 1.977 c -0.853 -0.826 -0.321 -1.71 -0.512 -2.528 c 1.124 -0.908 2.717 -0.318 3.942 -1.395 c 1.189 -1.046 2.163 1.179 3.518 0.93 c 2.07 -3.605 5.779 -3.562 9.206 -4.146 c 0.59 -0.587 1.18 -1.175 1.769 -1.764 c 0.118 0.059 0.239 0.174 0.353 0.168 c 4.321 -0.214 6.028 -0.759 10.266 -3.253 h 7.052 l 1.997 -2.224 c 2.003 -0.044 3.552 -0.594 4.744 -0.931 c 1.651 -0.467 3.666 -0.284 4.902 -1.242 c 1.466 -1.137 3.107 -0.061 4.576 -1.166 c 1.013 -0.763 2.638 -2.794 4.243 -0.601 c 1.337 -0.993 3.11 -1.251 3.921 -2.954 c 3.068 0.502 5.941 0.014 8.577 -1.59 l -0.221 -1.055 c -1.566 -0.349 -2.935 -0.319 -4.504 0.641 c -0.758 0.463 -1.62 1.495 -3 1.181 c -2.278 -0.517 -4.223 0.94 -6.321 1.498 c -1.482 0.395 -3.032 1.578 -4.354 1.335 c -4.078 -0.749 -7.133 3.111 -11.139 2.122 c -2.093 2.402 -4.972 1.696 -7.612 2.151 c -0.826 0.142 -3.103 0.172 -2.86 2.835 h -6.083 c -1.978 0.733 -3.673 2.35 -6.12 2.038 c -1.738 -0.222 -3.176 1.693 -5.081 0.959 c -6.357 2.446 -12.94 4.185 -19.447 6.159 c -4.296 1.304 -8.48 2.962 -12.907 3.871 c -2.413 0.495 -4.514 1.878 -7.08 2.292 c -2.812 0.454 -5.772 1.311 -8.18 3.063 c -1.554 1.13 -3.206 0.175 -4.801 0.734 c -1.638 1.949 -4.255 1.582 -6.423 2.373 c -7.398 2.7 -15.053 4.601 -22.491 7.237 c -4.049 1.435 -8.114 3.019 -12.272 4.184 c -4.187 1.173 -8.372 2.32 -12.111 4.549 c -1.265 0.755 -2.805 0.126 -3.997 1.399 c -0.551 0.588 -2.32 0.296 -2.8 -1.676 c 0.22 -1.435 2.237 -1.781 3.358 -2.081 c 4.529 -1.21 8.181 -4.497 12.879 -5.169 c 8.36 -4.809 17.848 -6.787 26.634 -10.538 c 3.25 -1.387 6.532 -2.872 9.901 -3.822 c 5.234 -1.477 9.961 -4.211 15.201 -5.583 c 3.293 -0.862 6.344 -2.415 9.552 -3.524 c 1.485 -0.513 3.119 0.149 4.573 -1.124 c 1.022 -0.894 2.62 -1.689 4.399 -1.39 c 1.719 0.289 2.122 -2.646 4.165 -1.954 c 2.848 -1.733 6.296 -1.62 9.257 -2.999 c 2.377 -1.107 4.788 -2.547 7.296 -2.794 c 2.914 -0.287 5.414 -1.539 8.125 -2.239 c 2.533 -0.654 4.945 -1.764 7.467 -2.469 a 1010.95 1010.95 0 0 0 15.186 -4.35 c 1.826 -0.542 3.671 -0.754 5.285 -2.028 c 4.054 -0.133 4.864 -0.716 9.775 -2.689 c 2.525 -1.015 5.354 -2.033 8.017 -2.238 c 3.717 -0.286 6.964 -1.938 10.485 -2.694 c 2.068 -0.444 4.646 0.576 6.348 -1.471 c 3.795 0.542 6.923 -1.926 10.58 -2.314 c 3.341 -0.354 6.527 -2.06 9.872 -2.538 c 1.494 -0.214 2.778 -0.78 3.977 -1.34 c 0.903 -0.422 1.71 -0.999 2.668 -0.772 c 2.687 0.637 5.13 -0.613 7.557 -1.182 c 2.22 -0.521 4.659 -0.596 6.572 -1.969 l 1.117 1.015 c 1.869 -1.205 4.312 -1.119 6.119 -2.884 c 2.341 -0.075 4.839 -0.305 7.369 -0.825 c 2.466 -0.507 4.936 -0.857 7.269 -1.854 c 0.142 -0.061 0.261 -0.321 0.365 -0.306 c 4.437 0.644 8.511 -0.951 12.679 -2.002 c 2.724 -0.687 5.591 -0.712 8.227 -1.875 c 0.698 -0.308 1.623 -0.101 2.444 -0.134 c 1.747 -0.07 3.397 -0.047 5.149 -0.866 c 1.451 -0.678 3.329 -0.338 5.076 -0.994 c 1.84 -0.69 3.806 -1.714 6.047 -1.186 c 1.227 0.289 2.491 -0.633 3.597 -0.794 c 4.077 -0.593 8.118 -1.317 12.159 -2.11 c 1.696 -0.333 3.42 0.046 5.134 -0.947 c 1.265 -0.733 2.959 -0.105 4.622 -0.906 c 1.838 -0.886 4.464 0.223 6.496 -1.187 c 3.633 0.76 7.108 -0.646 10.559 -1.184 c 4.936 -0.77 10.133 -0.516 14.81 -2.763 c 0.271 -0.13 0.659 -0.094 0.977 -0.041 c 3.786 0.631 7.303 -1.642 11.09 -1.011 c 2.135 0.355 3.846 -1.462 6.099 -1.066 c 1.94 0.341 4.155 0.573 5.958 -0.022 c 5.84 -1.926 11.776 -0.229 17.931 -1.112 l 2.331 3.345 c -0.362 1.251 0.972 3.052 1.281 5.264 c -1.62 1.426 -2.842 3.352 -5.061 4.138 c 0.735 0.834 1.765 1.456 2.075 2.505 c -1.418 2.046 -4.891 1.344 -5.214 4.485 c -2.145 1.371 -4.884 1.847 -6.837 3.805 c -0.637 0.638 -1.53 1.197 -2.397 1.399 c -4.331 1.01 -7.667 4.027 -11.664 5.654 c -8.415 3.426 -16.465 7.706 -25.106 10.613 c -1.879 0.632 -3.473 2.096 -5.344 2.773 c -2.477 0.891 -4.812 2.393 -7.53 2.444 c -0.259 -0.914 0.375 -1.805 -0.677 -2.193 c -0.669 0.691 -0.585 1.326 0.677 2.193 Z m -24.674 4.873 c 1.545 -0.38 2.712 0.396 3.946 -1.268 c -1.427 0.394 -2.432 -0.425 -3.372 1.122 c -0.48 -0.086 -0.783 0.135 -0.886 0.591 c -0.018 0.077 0.217 0.311 0.294 0.294 c 0.457 -0.103 0.677 -0.405 0.018 -0.739 Z M 158.893 335.826 c 0.988 -0.06 2.205 0.795 2.95 -0.285 c 0.121 -0.771 0.107 -1.379 -1.018 -1.534 c -0.894 -0.076 -1.211 1.03 -1.677 2.506 c -1.579 -0.675 -2.89 -0.788 -4.525 0.154 c 1.67 0.466 2.983 0.634 4.27 -0.841 Z m -65.445 26.183 l 2.897 0.001 c 0.413 -0.588 1.265 -0.861 1.297 -1.73 c -1.724 -0.914 -2.79 0.055 -3.787 1.73 c -0.985 0.38 -2.533 -0.926 -3.002 0.999 c -0.329 0 -0.667 -0.053 -0.984 0.008 c -5.443 1.053 -10.274 3.728 -15.323 5.822 c -0.373 0.155 -0.86 0.541 -0.703 1.162 h -1.626 c -0.503 0.855 -0.522 1.404 0.058 1.94 c 1.495 0.233 2.155 -0.684 2.568 -1.94 c 1.292 0.508 1.953 -0.926 3.047 -0.991 c 1.261 -0.076 2.385 -0.011 3.595 -0.936 c 2.473 -1.89 5.508 -2.641 8.59 -3.077 c 0.514 -0.073 0.891 -0.368 0.777 -0.989 c 1.554 0.16 2.611 -0.422 2.596 -1.999 Z m 17.417 -6.992 c 1.729 -0.027 3.532 0.314 5.003 -0.999 h 1.625 c 0.503 -0.854 0.522 -1.403 -0.025 -1.91 c -0.775 -0.123 -1.569 -0.287 -1.6 0.911 c -1.852 0.204 -4.208 -0.848 -5.003 1.998 c -0.985 0.38 -2.533 -0.926 -2.626 0.714 l -5.478 1.801 c 0.944 0.598 1.194 1.602 2.197 1.491 c 0.995 -0.998 1.974 -1.981 2.905 -3.007 c 0.985 -0.381 2.533 0.925 3.002 -0.999 Z m 17.011 -6.993 h -4.58 c -0.891 1.833 -3.248 1.905 -4.42 3.494 c 0.315 0.457 0.84 0.68 1.274 0.479 c 2.369 -1.098 5.474 -0.374 7.278 -2.943 c 0.164 -0.234 0.952 -0.031 1.45 -0.031 c 1.175 -0.027 1.295 -1.009 0.858 -1.536 c -0.674 -0.81 -1.594 -0.874 -1.86 0.537 Z m 179.106 -122.867 c 0 -0.166 0.046 -0.352 -0.013 -0.494 s -0.309 -0.356 -0.328 -0.342 c -0.974 0.727 -2.368 0.73 -3.258 1.983 h -4.18 c -0.287 0.697 -1.187 0.778 -0.967 1.835 c 3.022 0.197 5.796 -1.269 8.744 -1.504 c 0.013 -0.001 0.002 -0.312 0.002 -0.479 c 1.609 -0.16 3.235 0.262 4.844 -0.317 c 3.358 -1.21 6.47 -3.409 10.335 -2.679 c 1.568 -1.968 3.974 -0.45 5.877 -1.445 c 2.354 -1.231 4.974 -1.901 7.697 -1.508 c 0.063 -1.66 1.267 -2.019 2.742 -3.066 c -4.568 0.051 -8.068 2.696 -12.002 2.18 c -1.692 0.364 -2.772 2.259 -4.725 1.825 c -2.5 -0.555 -4.763 0.715 -7.006 1.224 c -2.249 0.51 -5.071 0.554 -6.794 2.766 c -0.125 0.16 -0.636 0.021 -0.968 0.021 Z m 108.074 -21.253 c 1.917 0.841 2.68 -1.396 4.416 -0.813 c 1.345 0.451 2.992 -0.095 4.452 0.138 c 1.735 0.277 2.976 -0.958 4.544 -1.249 c 2.13 -0.394 4.371 -0.49 6.446 -1.19 c 1.157 -0.39 2.179 -1.373 3.334 -1.517 c 1.16 -0.145 2.281 -1.482 3.552 -0.325 c 0.977 -1.723 2.129 1.374 3.116 -0.113 c 0.283 -0.51 -0.067 -1.299 0.725 -1.593 c 0.956 1.692 2.029 0.767 3.093 0.111 c 1.341 2.131 2.45 -0.345 3.734 -0.209 c 1.644 0.175 3.735 0.667 4.891 -0.098 c 1.935 -1.28 3.798 -0.734 5.667 -0.805 c 1.938 -0.074 3.477 -1.515 5.582 -1.117 c 2.542 0.48 5.084 -0.119 7.565 -0.905 c 1.184 -0.375 1.013 -0.983 0.697 -1.767 c -4.13 -1.327 -7.99 0.904 -12.002 0.738 c -1.886 1.902 -4.374 0.509 -6.492 1.184 c -3.162 1.008 -6.452 1.878 -9.72 1.711 c -3.958 -0.203 -7.618 1.812 -11.567 1.121 c -0.26 -0.046 -0.563 0.233 -0.859 0.302 c -2.427 0.566 -4.888 1.665 -7.28 1.535 c -2.856 -0.155 -5.417 0.837 -8.037 1.333 c -1.686 0.319 -3.362 0.744 -5.109 0.829 c -0.26 0.013 -0.506 0.332 -0.747 0.503 l -0.001 2.196 Z m -13.118 0.374 c -3.337 -0.398 -6.138 0.127 -8.803 1.334 c -0.418 0.189 -0.702 0.589 -1.266 0.579 c -4.497 -0.082 -8.794 1.208 -13.182 1.826 c -2.36 0.332 -4.974 0.388 -6.978 1.326 c -2.397 1.123 -4.999 0.482 -7.278 1.77 c -1.479 0.837 -3.211 1.145 -5.047 1.167 c -1.321 0.016 -3.071 0.45 -3.55 2.548 c 2.722 1.06 4.501 -1.091 6.877 -1.364 c 0.748 0.858 1.846 1.084 3.188 0.335 c 3.539 -1.974 7.365 -2.8 11.398 -2.617 c 2.323 0.105 4.495 -0.139 6.108 -1.883 c 1.612 -0.534 3.203 0.296 4.839 -0.688 c 1.302 -0.782 3.141 -1.031 4.701 -0.925 c 1.54 0.105 2.868 -1.119 4.339 -0.491 c 1.611 0.688 2.948 -1.563 4.652 -0.24 c 0.002 -0.86 0.002 -1.643 0.002 -2.677 Z M 131.07 346.897 c 3.977 0.841 6.824 -2.607 10.527 -2.947 c 1.855 -0.17 3.511 -1.356 4.74 -2.875 c 1.179 -0.332 2.592 0.498 3.573 -0.643 l -0.261 -1.547 c -0.817 0.587 -1.572 0.07 -2.644 0.425 c -4.531 1.504 -8.561 4.177 -13.204 5.45 c -0.916 0.251 -2.435 -0.603 -2.927 0.985 l 0.196 1.152 Z m 272.188 -141.893 c 3.347 0.916 6.417 -0.841 9.691 -1.116 v -1.777 c -3.44 0.388 -6.979 -0.896 -9.935 1.738 l 0.244 1.155 Z m 85.955 53.272 c 1.396 -0.63 3.916 0.742 4.934 -2.219 c -1.449 0.268 -2.672 0.495 -3.893 0.725 c -0.359 -0.305 -0.609 -0.811 -1.161 -0.668 c -0.958 -0.094 -1.145 1.199 -2.13 1.029 a 5.623 5.623 0 0 0 -1.979 0.007 c -0.571 0.11 -1.612 -0.616 -1.652 0.734 c 1.525 0.684 3.265 -0.308 4.643 0.577 l 0.302 1.481 c 1.208 0.006 0.671 -0.839 0.936 -1.666 Z m -1.042 -67.739 c -1.808 -0.448 -3.116 -0.355 -4.749 0.504 c -1.398 0.735 -3.49 0.152 -5.206 0.152 v 3.021 c 3.115 -1.999 6.889 -1.519 9.955 -3.677 Z m -141.929 24.538 c -1.885 2.02 -4.757 0.546 -7.268 1.382 c 0.306 1.014 -0.639 2.159 0.744 2.721 c 1.38 0.114 1.729 -1.277 2.854 -1.977 c 1.302 -0.306 2.972 0.382 4.468 -0.425 c -0.118 -0.55 0.181 -1.087 -0.798 -1.701 Z m 7.672 -0.732 h -5.813 v 1.649 h 5.813 v -1.649 Z m 45.093 32.61 c 0.06 -0.985 0.172 -1.668 -0.748 -1.816 c -1.165 -0.185 -1.675 1.2 -3.001 1.106 c -1.047 -0.075 -2.163 0.828 -3.609 1.452 c 2.998 1.306 5.031 -0.953 7.358 -0.742 Z M 62.13 373.864 c -1.473 0.67 -3.188 1.113 -4.274 2.757 c 2.263 1.114 3.448 -0.702 4.849 -0.996 c 0.233 -0.935 0.015 -1.323 -0.575 -1.761 Z m 109.408 -42.373 c -2.789 -1.097 -4.014 0.43 -5.771 1.042 c 2.203 1.35 3.439 -0.424 5.771 -1.042 Z m 287.502 -71.887 c 0.897 0.849 1.698 1.725 2.872 2.781 c 0.085 -1.535 0.573 -2.497 -0.344 -3.274 c -0.749 0.182 -1.592 -0.332 -2.528 0.493 Z m -22.063 -35.405 c -1.694 -0.167 -2.262 0.672 -2.843 1.592 c 1.003 0.518 1.885 0.556 2.843 -0.017 v -1.575 Z m 72.923 32.198 c -0.886 -0.009 -1.87 -0.637 -2.875 0.28 c 1.158 0.598 2.044 0.644 2.875 -0.28 Z m -69.885 -33.738 c 1.046 0.788 2.047 0.788 3.094 0 c -1.047 -0.788 -2.047 -0.788 -3.094 0 Z M 150.879 338.534 c 0.677 0.726 1.344 0.726 2.021 0 c -0.677 -0.725 -1.344 -0.725 -2.021 0 Z M 406.82 236.44 c -0.482 0.252 -1.332 -0.988 -1.641 0.376 c 0.604 0.483 1.158 0.517 1.641 -0.376 Z m 25.015 -9.989 c -0.482 0.252 -1.332 -0.988 -1.641 0.376 c 0.604 0.482 1.158 0.517 1.641 -0.376 Z m 1.722 0.709 c -0.466 0.328 -0.466 0.661 0 0.988 c 0.466 -0.328 0.466 -0.661 0 -0.988 " fill="#c3fb5b"/>
</svg>